<svg width="164" height="40" viewBox="0 0 164 40" fill="none" xmlns="http://www.w3.org/2000/svg">
<path d="M53.592 38L46.2 24.944H43.032V38H36.312V4.496H48.888C51.48 4.496 53.688 4.96 55.512 5.888C57.336 6.784 58.696 8.016 59.592 9.584C60.52 11.12 60.984 12.848 60.984 14.768C60.984 16.976 60.344 18.976 59.064 20.768C57.784 22.528 55.88 23.744 53.352 24.416L61.368 38H53.592ZM43.032 19.904H48.648C50.472 19.904 51.832 19.472 52.728 18.608C53.624 17.712 54.072 16.48 54.072 14.912C54.072 13.376 53.624 12.192 52.728 11.36C51.832 10.496 50.472 10.064 48.648 10.064H43.032V19.904ZM62.934 24.608C62.934 21.92 63.462 19.536 64.518 17.456C65.606 15.376 67.062 13.776 68.886 12.656C70.742 11.536 72.806 10.976 75.078 10.976C77.062 10.976 78.79 11.376 80.262 12.176C81.766 12.976 82.966 13.984 83.862 15.2V11.408H90.63V38H83.862V34.112C82.998 35.36 81.798 36.4 80.262 37.232C78.758 38.032 77.014 38.432 75.03 38.432C72.79 38.432 70.742 37.856 68.886 36.704C67.062 35.552 65.606 33.936 64.518 31.856C63.462 29.744 62.934 27.328 62.934 24.608ZM83.862 24.704C83.862 23.072 83.542 21.68 82.902 20.528C82.262 19.344 81.398 18.448 80.31 17.84C79.222 17.2 78.054 16.88 76.806 16.88C75.558 16.88 74.406 17.184 73.35 17.792C72.294 18.4 71.43 19.296 70.758 20.48C70.118 21.632 69.798 23.008 69.798 24.608C69.798 26.208 70.118 27.616 70.758 28.832C71.43 30.016 72.294 30.928 73.35 31.568C74.438 32.208 75.59 32.528 76.806 32.528C78.054 32.528 79.222 32.224 80.31 31.616C81.398 30.976 82.262 30.08 82.902 28.928C83.542 27.744 83.862 26.336 83.862 24.704ZM98.2013 8.24C97.0173 8.24 96.0253 7.872 95.2253 7.136C94.4573 6.368 94.0733 5.424 94.0733 4.304C94.0733 3.184 94.4573 2.256 95.2253 1.52C96.0253 0.751998 97.0173 0.367998 98.2013 0.367998C99.3853 0.367998 100.361 0.751998 101.129 1.52C101.929 2.256 102.329 3.184 102.329 4.304C102.329 5.424 101.929 6.368 101.129 7.136C100.361 7.872 99.3853 8.24 98.2013 8.24ZM101.513 11.408V38H94.7933V11.408H101.513ZM104.025 24.608C104.025 21.92 104.553 19.536 105.609 17.456C106.697 15.376 108.169 13.776 110.025 12.656C111.881 11.536 113.945 10.976 116.217 10.976C117.945 10.976 119.593 11.36 121.161 12.128C122.729 12.864 123.977 13.856 124.905 15.104V2.48H131.721V38H124.905V34.064C124.073 35.376 122.905 36.432 121.401 37.232C119.897 38.032 118.153 38.432 116.169 38.432C113.929 38.432 111.881 37.856 110.025 36.704C108.169 35.552 106.697 33.936 105.609 31.856C104.553 29.744 104.025 27.328 104.025 24.608ZM124.953 24.704C124.953 23.072 124.633 21.68 123.993 20.528C123.353 19.344 122.489 18.448 121.401 17.84C120.313 17.2 119.145 16.88 117.897 16.88C116.649 16.88 115.497 17.184 114.441 17.792C113.385 18.4 112.521 19.296 111.849 20.48C111.209 21.632 110.889 23.008 110.889 24.608C110.889 26.208 111.209 27.616 111.849 28.832C112.521 30.016 113.385 30.928 114.441 31.568C115.529 32.208 116.681 32.528 117.897 32.528C119.145 32.528 120.313 32.224 121.401 31.616C122.489 30.976 123.353 30.08 123.993 28.928C124.633 27.744 124.953 26.336 124.953 24.704ZM147.692 38.432C145.132 38.432 142.828 37.872 140.78 36.752C138.732 35.6 137.116 33.984 135.932 31.904C134.78 29.824 134.204 27.424 134.204 24.704C134.204 21.984 134.796 19.584 135.98 17.504C137.196 15.424 138.844 13.824 140.924 12.704C143.004 11.552 145.324 10.976 147.884 10.976C150.444 10.976 152.764 11.552 154.844 12.704C156.924 13.824 158.556 15.424 159.74 17.504C160.956 19.584 161.564 21.984 161.564 24.704C161.564 27.424 160.94 29.824 159.692 31.904C158.476 33.984 156.812 35.6 154.7 36.752C152.62 37.872 150.284 38.432 147.692 38.432ZM147.692 32.576C148.908 32.576 150.044 32.288 151.1 31.712C152.188 31.104 153.052 30.208 153.692 29.024C154.332 27.84 154.652 26.4 154.652 24.704C154.652 22.176 153.98 20.24 152.636 18.896C151.324 17.52 149.708 16.832 147.788 16.832C145.868 16.832 144.252 17.52 142.94 18.896C141.66 20.24 141.02 22.176 141.02 24.704C141.02 27.232 141.644 29.184 142.892 30.56C144.172 31.904 145.772 32.576 147.692 32.576Z" fill="#F7F7F7"/>
<path d="M12.5259 3.25412C19.4105 3.27773 25 9.1342 25 16.3768C25 23.6195 24.3554 24.5645 22.6922 24.4055C21.9394 24.3334 -0.596875 13.8038 0.0121528 5.79507C0.314468 1.81842 11.3522 3.2501 12.5259 3.25412ZM12.4741 39.7459C5.58947 39.7223 0 33.8658 0 26.6232C0 19.3805 0.64456 18.4354 2.30775 18.5945C3.06065 18.6666 25.5969 29.1962 24.9878 37.2049C24.6855 41.1816 13.6478 39.7499 12.4741 39.7459Z" fill="white"/>
</svg>
